<svg width="498" height="218" viewBox="0 0 498 218" fill="none" xmlns="http://www.w3.org/2000/svg">
<path d="M76.6875 6.875L47.25 96.5H29.3125L-1.52588e-05 6.875H20.375L38.25 66.6875L56.1875 6.875H76.6875ZM108.215 80.125C108.882 80.3333 109.548 80.4792 110.215 80.5625C110.882 80.6042 111.548 80.625 112.215 80.625C113.882 80.625 115.486 80.3958 117.027 79.9375C118.569 79.4792 120.007 78.8333 121.34 78C122.715 77.125 123.923 76.0833 124.965 74.875C126.048 73.625 126.923 72.25 127.59 70.75L140.09 83.3125C138.507 85.5625 136.673 87.5833 134.59 89.375C132.548 91.1667 130.319 92.6875 127.902 93.9375C125.527 95.1875 123.007 96.125 120.34 96.75C117.715 97.4167 115.007 97.75 112.215 97.75C107.507 97.75 103.069 96.875 98.9025 95.125C94.7775 93.375 91.1525 90.9375 88.0275 87.8125C84.9441 84.6875 82.5066 80.9792 80.715 76.6875C78.9233 72.3542 78.0275 67.6042 78.0275 62.4375C78.0275 57.1458 78.9233 52.3125 80.715 47.9375C82.5066 43.5625 84.9441 39.8333 88.0275 36.75C91.1525 33.6667 94.7775 31.2708 98.9025 29.5625C103.069 27.8542 107.507 27 112.215 27C115.007 27 117.736 27.3333 120.402 28C123.069 28.6667 125.59 29.625 127.965 30.875C130.382 32.125 132.632 33.6667 134.715 35.5C136.798 37.2917 138.632 39.3125 140.215 41.5625L108.215 80.125ZM116.965 44.9375C116.173 44.6458 115.382 44.4583 114.59 44.375C113.84 44.2917 113.048 44.25 112.215 44.25C109.882 44.25 107.673 44.6875 105.59 45.5625C103.548 46.3958 101.757 47.6042 100.215 49.1875C98.715 50.7708 97.5275 52.6875 96.6525 54.9375C95.7775 57.1458 95.34 59.6458 95.34 62.4375C95.34 63.0625 95.3608 63.7708 95.4025 64.5625C95.4858 65.3542 95.59 66.1667 95.715 67C95.8816 67.7917 96.0691 68.5625 96.2775 69.3125C96.4858 70.0625 96.7566 70.7292 97.09 71.3125L116.965 44.9375ZM169.742 96.5H152.68V29.5625H156.805L162.43 37.5C165.18 35 168.305 33.0833 171.805 31.75C175.305 30.375 178.93 29.6875 182.68 29.6875H197.742V46.6875H182.68C180.888 46.6875 179.201 47.0208 177.617 47.6875C176.034 48.3542 174.659 49.2708 173.492 50.4375C172.326 51.6042 171.409 52.9792 170.742 54.5625C170.076 56.1458 169.742 57.8333 169.742 59.625V96.5ZM229.645 11.375C229.645 12.9583 229.332 14.4375 228.707 15.8125C228.124 17.1875 227.312 18.3958 226.27 19.4375C225.228 20.4375 223.999 21.25 222.582 21.875C221.207 22.4583 219.728 22.75 218.145 22.75C216.562 22.75 215.062 22.4583 213.645 21.875C212.27 21.25 211.062 20.4375 210.02 19.4375C209.02 18.3958 208.207 17.1875 207.582 15.8125C206.999 14.4375 206.707 12.9583 206.707 11.375C206.707 9.83333 206.999 8.375 207.582 7C208.207 5.58333 209.02 4.375 210.02 3.375C211.062 2.33333 212.27 1.52083 213.645 0.9375C215.062 0.3125 216.562 0 218.145 0C219.728 0 221.207 0.3125 222.582 0.9375C223.999 1.52083 225.228 2.33333 226.27 3.375C227.312 4.375 228.124 5.58333 228.707 7C229.332 8.375 229.645 9.83333 229.645 11.375ZM226.707 96.5H209.52V29.5625H226.707V96.5ZM308.297 96.5H304.172L297.547 87.3125C295.922 88.7708 294.193 90.1458 292.36 91.4375C290.568 92.6875 288.672 93.7917 286.672 94.75C284.672 95.6667 282.61 96.3958 280.485 96.9375C278.402 97.4792 276.277 97.75 274.11 97.75C269.402 97.75 264.964 96.875 260.797 95.125C256.672 93.3333 253.047 90.875 249.922 87.75C246.839 84.5833 244.402 80.8542 242.61 76.5625C240.818 72.2292 239.922 67.5208 239.922 62.4375C239.922 57.3958 240.818 52.7083 242.61 48.375C244.402 44.0417 246.839 40.2917 249.922 37.125C253.047 33.9583 256.672 31.4792 260.797 29.6875C264.964 27.8958 269.402 27 274.11 27C275.61 27 277.152 27.125 278.735 27.375C280.36 27.625 281.922 28.0417 283.422 28.625C284.964 29.1667 286.402 29.8958 287.735 30.8125C289.068 31.7292 290.193 32.8542 291.11 34.1875V2.9375H308.297V96.5ZM291.11 62.4375C291.11 60.1042 290.652 57.8542 289.735 55.6875C288.86 53.4792 287.652 51.5417 286.11 49.875C284.568 48.1667 282.756 46.8125 280.672 45.8125C278.631 44.7708 276.443 44.25 274.11 44.25C271.777 44.25 269.568 44.6667 267.485 45.5C265.443 46.3333 263.652 47.5417 262.11 49.125C260.61 50.6667 259.422 52.5625 258.547 54.8125C257.672 57.0625 257.235 59.6042 257.235 62.4375C257.235 64.8958 257.672 67.2292 258.547 69.4375C259.422 71.6458 260.61 73.5833 262.11 75.25C263.652 76.9167 265.443 78.2292 267.485 79.1875C269.568 80.1458 271.777 80.625 274.11 80.625C276.443 80.625 278.631 80.125 280.672 79.125C282.756 78.0833 284.568 76.7292 286.11 75.0625C287.652 73.3542 288.86 71.4167 289.735 69.25C290.652 67.0417 291.11 64.7708 291.11 62.4375ZM345.325 11.375C345.325 12.9583 345.013 14.4375 344.388 15.8125C343.804 17.1875 342.992 18.3958 341.95 19.4375C340.908 20.4375 339.679 21.25 338.263 21.875C336.888 22.4583 335.408 22.75 333.825 22.75C332.242 22.75 330.742 22.4583 329.325 21.875C327.95 21.25 326.742 20.4375 325.7 19.4375C324.7 18.3958 323.888 17.1875 323.263 15.8125C322.679 14.4375 322.388 12.9583 322.388 11.375C322.388 9.83333 322.679 8.375 323.263 7C323.888 5.58333 324.7 4.375 325.7 3.375C326.742 2.33333 327.95 1.52083 329.325 0.9375C330.742 0.3125 332.242 0 333.825 0C335.408 0 336.888 0.3125 338.263 0.9375C339.679 1.52083 340.908 2.33333 341.95 3.375C342.992 4.375 343.804 5.58333 344.388 7C345.013 8.375 345.325 9.83333 345.325 11.375ZM342.388 96.5H325.2V29.5625H342.388V96.5ZM423.977 62.4375C423.977 67.4375 423.082 72.1042 421.29 76.4375C419.498 80.7292 417.061 84.4583 413.977 87.625C410.894 90.75 407.269 93.2292 403.102 95.0625C398.977 96.8542 394.54 97.75 389.79 97.75C385.082 97.75 380.644 96.8542 376.477 95.0625C372.352 93.2292 368.727 90.75 365.602 87.625C362.519 84.4583 360.082 80.7292 358.29 76.4375C356.498 72.1042 355.602 67.4375 355.602 62.4375C355.602 57.3542 356.498 52.6458 358.29 48.3125C360.082 43.9792 362.519 40.25 365.602 37.125C368.727 33.9583 372.352 31.4792 376.477 29.6875C380.644 27.8958 385.082 27 389.79 27C394.54 27 398.977 27.8542 403.102 29.5625C407.269 31.2292 410.894 33.625 413.977 36.75C417.061 39.8333 419.498 43.5625 421.29 47.9375C423.082 52.2708 423.977 57.1042 423.977 62.4375ZM406.79 62.4375C406.79 59.6875 406.332 57.2083 405.415 55C404.54 52.75 403.332 50.8333 401.79 49.25C400.248 47.625 398.436 46.3958 396.352 45.5625C394.311 44.6875 392.123 44.25 389.79 44.25C387.457 44.25 385.248 44.6875 383.165 45.5625C381.123 46.3958 379.332 47.625 377.79 49.25C376.29 50.8333 375.102 52.75 374.227 55C373.352 57.2083 372.915 59.6875 372.915 62.4375C372.915 65.0208 373.352 67.4167 374.227 69.625C375.102 71.8333 376.29 73.75 377.79 75.375C379.332 77 381.123 78.2917 383.165 79.25C385.248 80.1667 387.457 80.625 389.79 80.625C392.123 80.625 394.311 80.1875 396.352 79.3125C398.436 78.4375 400.248 77.2083 401.79 75.625C403.332 74.0417 404.54 72.125 405.415 69.875C406.332 67.625 406.79 65.1458 406.79 62.4375ZM454.318 96.5H437.255V29.5625H441.38L447.005 36.0625C449.755 33.5625 452.859 31.6458 456.318 30.3125C459.818 28.9375 463.463 28.25 467.255 28.25C471.338 28.25 475.193 29.0417 478.818 30.625C482.443 32.1667 485.609 34.3125 488.318 37.0625C491.026 39.7708 493.151 42.9583 494.693 46.625C496.276 50.25 497.068 54.125 497.068 58.25V96.5H480.005V58.25C480.005 56.5 479.672 54.8542 479.005 53.3125C478.338 51.7292 477.422 50.3542 476.255 49.1875C475.088 48.0208 473.734 47.1042 472.193 46.4375C470.651 45.7708 469.005 45.4375 467.255 45.4375C465.463 45.4375 463.776 45.7708 462.193 46.4375C460.609 47.1042 459.234 48.0208 458.068 49.1875C456.901 50.3542 455.984 51.7292 455.318 53.3125C454.651 54.8542 454.318 56.5 454.318 58.25V96.5ZM17.5275 153.75C17.5275 150.042 18.2358 146.562 19.6525 143.312C21.0691 140.062 22.9858 137.229 25.4025 134.812C27.8608 132.354 30.715 130.417 33.965 129C37.215 127.583 40.6941 126.875 44.4025 126.875H85.5275V144.812H44.4025C43.1525 144.812 41.9858 145.042 40.9025 145.5C39.8191 145.958 38.8608 146.604 38.0275 147.438C37.2358 148.229 36.6108 149.167 36.1525 150.25C35.6941 151.333 35.465 152.5 35.465 153.75C35.465 155 35.6941 156.188 36.1525 157.312C36.6108 158.396 37.2358 159.354 38.0275 160.188C38.8608 160.979 39.8191 161.604 40.9025 162.062C41.9858 162.521 43.1525 162.75 44.4025 162.75H62.34C66.0483 162.75 69.5275 163.458 72.7775 164.875C76.0691 166.25 78.9233 168.167 81.34 170.625C83.7983 173.042 85.715 175.896 87.09 179.188C88.5066 182.438 89.215 185.917 89.215 189.625C89.215 193.333 88.5066 196.812 87.09 200.062C85.715 203.312 83.7983 206.167 81.34 208.625C78.9233 211.042 76.0691 212.958 72.7775 214.375C69.5275 215.792 66.0483 216.5 62.34 216.5H22.5275V198.562H62.34C63.59 198.562 64.7566 198.333 65.84 197.875C66.9233 197.417 67.8608 196.792 68.6525 196C69.4858 195.167 70.1316 194.208 70.59 193.125C71.0483 192.042 71.2775 190.875 71.2775 189.625C71.2775 188.375 71.0483 187.208 70.59 186.125C70.1316 185.042 69.4858 184.104 68.6525 183.312C67.8608 182.479 66.9233 181.833 65.84 181.375C64.7566 180.917 63.59 180.688 62.34 180.688H44.4025C40.6941 180.688 37.215 179.979 33.965 178.562C30.715 177.146 27.8608 175.229 25.4025 172.812C22.9858 170.354 21.0691 167.5 19.6525 164.25C18.2358 160.958 17.5275 157.458 17.5275 153.75ZM135.492 216.5C131.367 216.5 127.492 215.729 123.867 214.188C120.242 212.604 117.055 210.458 114.305 207.75C111.597 205 109.451 201.812 107.867 198.188C106.326 194.562 105.555 190.688 105.555 186.562V166.688H97.2425V149.688H105.555V122.938H122.555V149.688H148.43V166.688H122.555V186.562C122.555 188.354 122.888 190.042 123.555 191.625C124.222 193.167 125.138 194.521 126.305 195.688C127.472 196.854 128.847 197.792 130.43 198.5C132.013 199.167 133.701 199.5 135.492 199.5H148.43V216.5H135.492ZM211.082 208.688C209.707 209.938 208.228 211.125 206.645 212.25C205.103 213.333 203.478 214.292 201.77 215.125C200.062 215.917 198.291 216.542 196.457 217C194.666 217.5 192.832 217.75 190.957 217.75C186.832 217.75 182.957 217.021 179.332 215.562C175.707 214.104 172.52 212.042 169.77 209.375C167.062 206.667 164.916 203.396 163.332 199.562C161.791 195.688 161.02 191.354 161.02 186.562V149.562H178.02V186.562C178.02 188.812 178.353 190.833 179.02 192.625C179.728 194.375 180.666 195.854 181.832 197.062C182.999 198.271 184.353 199.188 185.895 199.812C187.478 200.438 189.166 200.75 190.957 200.75C192.707 200.75 194.353 200.354 195.895 199.562C197.478 198.729 198.853 197.646 200.02 196.312C201.187 194.979 202.103 193.479 202.77 191.812C203.437 190.104 203.77 188.354 203.77 186.562V149.562H220.832V216.5H216.707L211.082 208.688ZM302.422 216.5H298.297L291.672 207.312C290.047 208.771 288.318 210.146 286.485 211.438C284.693 212.688 282.797 213.792 280.797 214.75C278.797 215.667 276.735 216.396 274.61 216.938C272.527 217.479 270.402 217.75 268.235 217.75C263.527 217.75 259.089 216.875 254.922 215.125C250.797 213.333 247.172 210.875 244.047 207.75C240.964 204.583 238.527 200.854 236.735 196.562C234.943 192.229 234.047 187.521 234.047 182.438C234.047 177.396 234.943 172.708 236.735 168.375C238.527 164.042 240.964 160.292 244.047 157.125C247.172 153.958 250.797 151.479 254.922 149.688C259.089 147.896 263.527 147 268.235 147C269.735 147 271.277 147.125 272.86 147.375C274.485 147.625 276.047 148.042 277.547 148.625C279.089 149.167 280.527 149.896 281.86 150.812C283.193 151.729 284.318 152.854 285.235 154.188V122.938H302.422V216.5ZM285.235 182.438C285.235 180.104 284.777 177.854 283.86 175.688C282.985 173.479 281.777 171.542 280.235 169.875C278.693 168.167 276.881 166.812 274.797 165.812C272.756 164.771 270.568 164.25 268.235 164.25C265.902 164.25 263.693 164.667 261.61 165.5C259.568 166.333 257.777 167.542 256.235 169.125C254.735 170.667 253.547 172.562 252.672 174.812C251.797 177.062 251.36 179.604 251.36 182.438C251.36 184.896 251.797 187.229 252.672 189.438C253.547 191.646 254.735 193.583 256.235 195.25C257.777 196.917 259.568 198.229 261.61 199.188C263.693 200.146 265.902 200.625 268.235 200.625C270.568 200.625 272.756 200.125 274.797 199.125C276.881 198.083 278.693 196.729 280.235 195.062C281.777 193.354 282.985 191.417 283.86 189.25C284.777 187.042 285.235 184.771 285.235 182.438ZM339.45 131.375C339.45 132.958 339.137 134.438 338.512 135.812C337.929 137.188 337.117 138.396 336.075 139.438C335.033 140.438 333.804 141.25 332.387 141.875C331.012 142.458 329.533 142.75 327.95 142.75C326.367 142.75 324.867 142.458 323.45 141.875C322.075 141.25 320.867 140.438 319.825 139.438C318.825 138.396 318.012 137.188 317.387 135.812C316.804 134.438 316.512 132.958 316.512 131.375C316.512 129.833 316.804 128.375 317.387 127C318.012 125.583 318.825 124.375 319.825 123.375C320.867 122.333 322.075 121.521 323.45 120.938C324.867 120.312 326.367 120 327.95 120C329.533 120 331.012 120.312 332.387 120.938C333.804 121.521 335.033 122.333 336.075 123.375C337.117 124.375 337.929 125.583 338.512 127C339.137 128.375 339.45 129.833 339.45 131.375ZM336.512 216.5H319.325V149.562H336.512V216.5ZM418.102 182.438C418.102 187.438 417.207 192.104 415.415 196.438C413.623 200.729 411.186 204.458 408.102 207.625C405.019 210.75 401.394 213.229 397.227 215.062C393.102 216.854 388.665 217.75 383.915 217.75C379.207 217.75 374.769 216.854 370.602 215.062C366.477 213.229 362.852 210.75 359.727 207.625C356.644 204.458 354.207 200.729 352.415 196.438C350.623 192.104 349.727 187.438 349.727 182.438C349.727 177.354 350.623 172.646 352.415 168.312C354.207 163.979 356.644 160.25 359.727 157.125C362.852 153.958 366.477 151.479 370.602 149.688C374.769 147.896 379.207 147 383.915 147C388.665 147 393.102 147.854 397.227 149.562C401.394 151.229 405.019 153.625 408.102 156.75C411.186 159.833 413.623 163.562 415.415 167.938C417.207 172.271 418.102 177.104 418.102 182.438ZM400.915 182.438C400.915 179.688 400.457 177.208 399.54 175C398.665 172.75 397.457 170.833 395.915 169.25C394.373 167.625 392.561 166.396 390.477 165.562C388.436 164.688 386.248 164.25 383.915 164.25C381.582 164.25 379.373 164.688 377.29 165.562C375.248 166.396 373.457 167.625 371.915 169.25C370.415 170.833 369.227 172.75 368.352 175C367.477 177.208 367.04 179.688 367.04 182.438C367.04 185.021 367.477 187.417 368.352 189.625C369.227 191.833 370.415 193.75 371.915 195.375C373.457 197 375.248 198.292 377.29 199.25C379.373 200.167 381.582 200.625 383.915 200.625C386.248 200.625 388.436 200.188 390.477 199.312C392.561 198.438 394.373 197.208 395.915 195.625C397.457 194.042 398.665 192.125 399.54 189.875C400.457 187.625 400.915 185.146 400.915 182.438ZM468.13 216.5H429.13V199.5H468.13C469.297 199.5 470.297 199.083 471.13 198.25C471.963 197.417 472.38 196.417 472.38 195.25C472.38 194.042 471.963 193.25 471.13 192.875C470.297 192.5 469.297 192.312 468.13 192.312H450.38C447.422 192.312 444.651 191.75 442.068 190.625C439.484 189.5 437.234 187.979 435.318 186.062C433.401 184.104 431.88 181.833 430.755 179.25C429.672 176.667 429.13 173.896 429.13 170.938C429.13 167.979 429.672 165.208 430.755 162.625C431.88 160.042 433.401 157.792 435.318 155.875C437.234 153.958 439.484 152.458 442.068 151.375C444.651 150.25 447.422 149.688 450.38 149.688H484.943V166.688H450.38C449.213 166.688 448.213 167.104 447.38 167.938C446.547 168.771 446.13 169.771 446.13 170.938C446.13 172.146 446.547 173.188 447.38 174.062C448.213 174.896 449.213 175.312 450.38 175.312H468.13C471.047 175.312 473.797 175.812 476.38 176.812C478.963 177.771 481.213 179.125 483.13 180.875C485.047 182.625 486.568 184.729 487.693 187.188C488.818 189.646 489.38 192.333 489.38 195.25C489.38 198.208 488.818 200.979 487.693 203.562C486.568 206.104 485.047 208.354 483.13 210.312C481.213 212.229 478.963 213.75 476.38 214.875C473.797 215.958 471.047 216.5 468.13 216.5Z" fill="white"/>
</svg>
